# xmcd CD database file
#
# Track frame offsets:
#	150
#	26235
#	50735
#	69387
#	105952
#	127335
#	152005
#	171015
#	192635
#	218547
#	242187
#	267335
#
# Disc length: 4068 seconds
#
# Revision: 3
# Processed by: cddbd v1.5.2PL0 Copyright (c) Steve Scherf et al.
# Submitted via: CDex 1.60beta1-cs1
#
DISCID=b00fe20c
DTITLE=Various Artist - POP GOES ON ELECTRO
DYEAR=1998
DGENRE=Electronic
TTITLE0=FLIP FLOP/FRAGMENTS
TTITLE1=snow mobiles/南向き斜面の日時計
TTITLE2=snow mobiles/新しい名前
TTITLE3=516/516
TTITLE4=TRUE COLORS/サヨナラヨーダ
TTITLE5=SCUDELIA ELECTRO/IT’LL BE NICE(RE-MIX)
TTITLE6=村上ユカ/ねこになれたら
TTITLE7=村上ユカ/まるめろ
TTITLE8=BARGAIN/NASTY DREAM OF X’MAS
TTITLE9=EIJI YOSHIZAWA/SHADOW
TTITLE10=SCUDELIA ELECTRO feat. 五島良子/水虎の涙
TTITLE11=細野晴臣/esc
EXTD=YEAR: 1998
EXTT0=
EXTT1=
EXTT2=
EXTT3=
EXTT4=
EXTT5=
EXTT6=
EXTT7=
EXTT8=
EXTT9=
EXTT10=
EXTT11=
PLAYORDER=
